Coordinates
version=1
nRows=18
nColumns=63
inDegrees=yes

Units are S.I. units (second, meters, Newtons, ...)
If the header above contains a line with 'inDegrees', this indicates whether rotational values are in degrees (yes) or radians (no).

endheader
time	pelvis_tilt	pelvis_list	pelvis_rotation	pelvis_tx	pelvis_ty	pelvis_tz	hip_flexion_r	hip_adduction_r	hip_rotation_r	knee_angle_r	knee_angle_r_beta	ankle_angle_r	subtalar_angle_r	mtp_angle_r	hip_flexion_l	hip_adduction_l	hip_rotation_l	knee_angle_l	knee_angle_l_beta	ankle_angle_l	subtalar_angle_l	mtp_angle_l	L5_S1_Flex_Ext	L5_S1_Lat_Bending	L5_S1_axial_rotation	L4_L5_Flex_Ext	L4_L5_Lat_Bending	L4_L5_axial_rotation	L3_L4_Flex_Ext	L3_L4_Lat_Bending	L3_L4_axial_rotation	L2_L3_Flex_Ext	L2_L3_Lat_Bending	L2_L3_axial_rotation	L1_L2_Flex_Ext	L1_L2_Lat_Bending	L1_L2_axial_rotation	L1_T12_Flex_Ext	L1_T12_Lat_Bending	L1_T12_axial_rotation	Abs_r3	Abs_r2	Abs_r1	Abs_t1	Abs_t2	neck_flexion	neck_bending	neck_rotation	arm_flex_r	arm_add_r	arm_rot_r	elbow_flex_r	pro_sup_r	wrist_flex_r	wrist_dev_r	arm_flex_l	arm_add_l	arm_rot_l	elbow_flex_l	pro_sup_l	wrist_flex_l	wrist_dev_l
0.000000	0.642756	-4.983755	103.866986	0.265624	0.757484	0.870306	4.860014	0.983970	5.608049	15.942826	0.278255	29.043545	-16.082432	0.000000	8.306271	0.137250	9.768574	18.151588	0.316805	35.165250	-11.395039	0.000000	-0.244708	-0.030214	2.007774	-0.454447	-0.040185	2.133260	-0.402030	-0.073463	2.133260	-0.279676	-0.073463	1.756802	-0.227236	-0.061613	1.631316	-0.139826	-0.046802	1.505830	-1.747923	-0.341792	11.166636	0.000000	0.000000	15.148351	-4.303274	-14.042386	16.153107	-4.527259	47.830553	30.667280	78.079026	3.846941	11.227579	27.708580	12.989795	183.566458	6.465004	46.015744	-11.611377	-7.386249
0.016667	1.418098	-4.603802	104.276562	0.263781	0.757356	0.869311	4.437143	1.756931	5.206150	15.553042	0.271452	29.256647	-15.620417	0.000000	8.098823	-0.539562	11.024161	18.201916	0.317683	35.732189	-11.601096	0.000000	-0.221135	0.092892	1.888073	-0.410669	0.123547	2.006078	-0.363302	0.225859	2.006078	-0.252735	0.225859	1.652064	-0.205346	0.189426	1.534060	-0.126356	0.143890	1.416055	-1.579544	1.050817	10.500898	0.000000	0.000000	16.081116	-5.648521	-13.572356	16.541011	-5.164851	50.771849	30.186517	83.282430	2.812029	11.201911	28.601111	14.220613	197.020762	1.901453	35.332659	-8.882403	-8.886649
0.033333	2.019188	-4.329970	104.551127	0.262544	0.757352	0.868548	4.142062	2.364476	4.937545	15.243099	0.266042	29.439858	-15.237999	0.000000	7.935616	-1.079013	11.958740	18.191031	0.317493	36.142215	-11.725234	0.000000	-0.200099	0.185508	1.809917	-0.371604	0.246725	1.923037	-0.328743	0.451043	1.923037	-0.228693	0.451043	1.583678	-0.185812	0.378287	1.470558	-0.114337	0.287351	1.357438	-1.429287	2.098498	10.066216	0.000000	0.000000	16.882143	-6.699482	-13.276083	16.804901	-5.682527	52.874782	29.982424	86.917872	2.210597	11.097991	29.240424	15.072435	206.057492	-1.332612	26.573453	-6.504792	-10.058021
0.050000	2.461641	-4.152008	104.701818	0.261853	0.757450	0.868001	3.963450	2.821305	4.790666	15.008170	0.261942	29.596703	-14.928490	0.000000	7.812868	-1.492975	12.600046	18.126604	0.316369	36.412703	-11.774977	0.000000	-0.181537	0.250527	1.768390	-0.337133	0.333200	1.878915	-0.298247	0.609131	1.878915	-0.207479	0.609131	1.547341	-0.168575	0.510874	1.436817	-0.103730	0.388066	1.326293	-1.296701	2.834008	9.835256	0.000000	0.000000	17.564530	-7.479938	-13.131038	16.951627	-6.090925	54.213871	30.020185	89.135288	1.982522	10.919766	29.641385	15.570889	211.051979	-3.356388	19.630726	-4.463897	-10.925421
0.066667	2.761072	-4.059662	104.739773	0.261646	0.757629	0.867654	3.889984	3.142118	4.753944	14.843427	0.259067	29.730711	-14.685201	0.000000	7.726796	-1.793324	12.975812	18.016306	0.314444	36.561031	-11.757848	0.000000	-0.165386	0.290845	1.758578	-0.307138	0.386824	1.868489	-0.271712	0.707162	1.868489	-0.189020	0.707162	1.538755	-0.153577	0.593092	1.428844	-0.094501	0.450520	1.318933	-1.181335	3.290102	9.780681	0.000000	0.000000	18.141379	-8.013672	-13.114690	16.988040	-6.400683	54.863634	30.264987	90.084613	2.067678	10.671181	29.818862	15.741604	212.379550	-4.289071	14.397076	-2.745070	-11.513902
0.083333	2.933096	-4.042680	104.676128	0.261863	0.757867	0.867489	3.910343	3.341614	4.815812	14.744043	0.257332	29.845406	-14.501445	0.000000	7.673619	-1.991931	13.113773	17.867807	0.311852	36.604575	-11.681371	0.000000	-0.151582	0.309360	1.775564	-0.281503	0.411448	1.886537	-0.249034	0.752177	1.886537	-0.173243	0.752177	1.553619	-0.140759	0.630846	1.442646	-0.086614	0.479198	1.331673	-1.082736	3.499537	9.875155	0.000000	0.000000	18.625791	-8.324465	-13.204508	16.920991	-6.622436	54.898590	30.682014	89.915783	2.405942	10.356182	29.787724	15.610210	210.415534	-4.249859	10.765101	-1.333662	-11.848520
0.100000	2.993330	-4.090811	104.522021	0.262442	0.758145	0.867490	4.013205	3.434494	4.964701	14.705188	0.256654	29.944316	-14.370533	0.000000	7.649553	-2.100672	13.041664	17.688779	0.308727	36.560714	-11.553069	0.000000	-0.140063	0.308965	1.814435	-0.260110	0.410923	1.927837	-0.230109	0.751217	1.927837	-0.160078	0.751217	1.587631	-0.130062	0.630041	1.474229	-0.080032	0.478586	1.360826	-1.000453	3.495071	10.091344	0.000000	0.000000	19.030864	-8.436099	-13.377962	16.757330	-6.766824	54.393256	31.236451	88.778732	2.937189	9.978716	29.562838	15.202336	205.535260	-3.357951	8.627399	-0.215027	-11.954329
0.116667	2.957389	-4.193803	104.288588	0.263323	0.758439	0.867640	4.187248	3.435458	5.189044	14.722036	0.256948	30.030966	-14.285778	0.000000	7.650816	-2.131420	12.787218	17.486890	0.305204	36.446823	-11.380466	0.000000	-0.130764	0.292557	1.870275	-0.242842	0.389100	1.987168	-0.214832	0.711322	1.987168	-0.149450	0.711322	1.636491	-0.121427	0.596582	1.519599	-0.074719	0.453170	1.402707	-0.934034	3.309459	10.401911	0.000000	0.000000	19.369701	-8.372355	-13.612521	16.503908	-6.844482	53.422150	31.893484	86.823397	3.601295	9.542728	29.159072	14.543610	198.114056	-1.732542	7.876568	0.625485	-11.856384
0.133333	2.840888	-4.341402	103.986966	0.264444	0.758731	0.867923	4.421150	3.359207	5.477272	14.789759	0.258130	30.108883	-14.240491	0.000000	7.673625	-2.096049	12.378169	17.269813	0.301415	36.280280	-11.171085	0.000000	-0.123623	0.263031	1.938170	-0.229581	0.349831	2.059306	-0.203101	0.639533	2.059306	-0.141289	0.639533	1.695899	-0.114797	0.536373	1.574763	-0.070638	0.407435	1.453628	-0.883028	2.975459	10.779521	0.000000	0.000000	19.655401	-8.157017	-13.885654	16.167576	-6.866049	52.059791	32.618298	84.199711	4.338136	9.052165	28.591294	13.659662	188.527253	0.507169	8.405207	1.202521	-11.579739
0.150000	2.659442	-4.523357	103.628294	0.265746	0.758997	0.868321	4.703588	3.220439	5.817817	14.903528	0.260116	30.181594	-14.227984	0.000000	7.714199	-2.006433	11.842252	17.045218	0.297495	36.078463	-10.932451	0.000000	-0.118577	0.223283	2.013204	-0.220209	0.296967	2.139029	-0.194810	0.542891	2.139029	-0.135522	0.542891	1.761554	-0.110111	0.455319	1.635728	-0.067755	0.345866	1.509903	-0.846983	2.525826	11.196838	0.000000	0.000000	19.901066	-7.813864	-14.174832	15.755185	-6.842162	50.380697	33.376078	81.057610	5.087587	8.510972	27.874371	12.576121	177.150177	3.241986	10.105914	1.530729	-11.149448
0.166667	2.428668	-4.729416	103.223706	0.267166	0.759219	0.868818	5.023242	3.033856	6.199112	15.058516	0.262821	30.252625	-14.241570	0.000000	7.768754	-1.874445	11.207201	16.820774	0.293578	35.858747	-10.672086	0.000000	-0.115562	0.176210	2.090463	-0.214610	0.234359	2.221117	-0.189857	0.428436	2.221117	-0.132076	0.428436	1.829155	-0.107311	0.359327	1.698501	-0.066032	0.272949	1.567847	-0.825447	1.993318	11.626526	0.000000	0.000000	20.119794	-7.366680	-14.457524	15.273585	-6.783459	48.459386	34.132009	77.547030	5.789525	7.923096	27.023171	11.318616	164.358158	6.352711	12.871287	1.624758	-10.590567
0.183333	2.191701	-4.937378	102.784770	0.268525	0.759347	0.869418	5.368723	2.838276	6.611237	15.243095	0.266042	30.360402	-14.231587	0.000000	7.828255	-1.737329	10.481773	16.604489	0.289803	35.654645	-10.389312	0.000000	-0.115683	0.130632	2.139881	-0.214834	0.173740	2.273624	-0.190055	0.317618	2.273624	-0.132214	0.317618	1.872396	-0.107423	0.266384	1.738654	-0.066101	0.202348	1.604911	-0.826309	1.477732	11.901378	0.000000	0.000000	20.414218	-6.876958	-14.570424	14.803567	-6.647816	46.586022	34.759825	74.009652	6.078881	7.206270	26.051587	9.880370	150.830604	9.671312	16.426996	1.653309	-10.000177
0.200000	1.887963	-5.144515	102.299205	0.269990	0.759366	0.870046	5.717727	2.588109	7.079680	15.481620	0.270205	30.455402	-14.294577	0.000000	7.874072	-1.539203	9.698807	16.397460	0.286190	35.486317	-10.072332	0.000000	-0.117033	0.076166	2.188775	-0.217342	0.101301	2.325574	-0.192274	0.185190	2.325574	-0.133757	0.185190	1.915178	-0.108677	0.155317	1.778380	-0.066873	0.117981	1.641582	-0.835956	0.861603	12.173312	0.000000	0.000000	20.642281	-6.253406	-14.692063	14.279705	-6.518203	44.693040	35.348775	70.202804	6.138373	6.375017	24.700345	8.028774	132.534901	13.839372	24.780776	1.018369	-8.863414
0.216667	1.592254	-5.329945	101.810947	0.271298	0.759330	0.870730	6.045098	2.338390	7.516283	15.738702	0.274692	30.525259	-14.350111	0.000000	7.907607	-1.334500	8.966509	16.214155	0.282990	35.353784	-9.795285	0.000000	-0.119652	0.025216	2.235137	-0.222206	0.033538	2.374833	-0.196576	0.061311	2.374833	-0.136750	0.061311	1.955745	-0.111109	0.051421	1.816049	-0.068369	0.039060	1.676353	-0.854662	0.285251	12.431161	0.000000	0.000000	20.817853	-5.607704	-14.823756	13.640147	-6.430121	42.521633	35.896660	66.843522	5.992658	5.599067	23.451669	6.316801	116.539611	17.388118	32.141629	0.329027	-8.074373
0.233333	1.335017	-5.488404	101.327270	0.272406	0.759196	0.871432	6.344355	2.120765	7.926962	15.999632	0.279246	30.583616	-14.398009	0.000000	7.934659	-1.152408	8.298985	16.067564	0.280432	35.279188	-9.573207	0.000000	-0.124213	-0.017307	2.274635	-0.230676	-0.023019	2.416799	-0.204070	-0.042081	2.416799	-0.141963	-0.042081	1.990305	-0.115344	-0.035293	1.848141	-0.070975	-0.026809	1.705976	-0.887241	-0.195783	12.650836	0.000000	0.000000	21.011424	-4.986322	-14.894970	12.874016	-6.377262	39.987036	36.341497	64.321412	5.664620	4.942321	22.295606	4.742935	103.219701	20.269990	38.218525	-0.440988	-7.503957
0.250000	1.149257	-5.623344	100.880698	0.273230	0.758902	0.872148	6.625687	1.960476	8.270575	16.260397	0.283797	30.655535	-14.404342	0.000000	7.978219	-1.019661	7.723153	15.978170	0.278872	35.280104	-9.408913	0.000000	-0.130081	-0.046480	2.295534	-0.241573	-0.061818	2.439004	-0.213710	-0.113011	2.439004	-0.148670	-0.113011	2.008592	-0.120793	-0.094782	1.865121	-0.074328	-0.071997	1.721650	-0.929155	-0.525791	12.767069	0.000000	0.000000	21.278152	-4.453791	-14.851358	11.985271	-6.379648	37.126588	36.628183	62.730114	5.134621	4.445424	21.218096	3.285821	92.291396	22.514634	43.020806	-1.273837	-7.064415
0.266667	1.099680	-5.721101	100.485506	0.273665	0.758373	0.872911	6.887900	1.919754	8.546577	16.514388	0.288230	30.750925	-14.368320	0.000000	8.058415	-0.995770	7.269938	15.984629	0.278984	35.388819	-9.325768	0.000000	-0.138444	-0.052722	2.289374	-0.257104	-0.070120	2.432460	-0.227449	-0.128188	2.432460	-0.158228	-0.128188	2.003202	-0.128559	-0.107510	1.860116	-0.079107	-0.081666	1.717030	-0.988891	-0.596400	12.732810	0.000000	0.000000	21.659388	-4.052761	-14.610124	10.818913	-6.725344	31.333739	37.340138	64.037613	3.918443	4.407346	20.203731	1.968754	83.737135	24.110442	46.390582	-2.135143	-6.706708
0.283333	1.117424	-5.800133	100.130830	0.273910	0.757609	0.873656	7.145138	1.942698	8.805667	16.777703	0.292826	30.897266	-14.324785	0.000000	8.167185	-1.032086	6.844300	16.058337	0.280271	35.583236	-9.230522	0.000000	-0.148431	-0.046819	2.252794	-0.275651	-0.062269	2.393593	-0.243857	-0.113835	2.393593	-0.169641	-0.113835	1.971195	-0.137833	-0.095473	1.830395	-0.084813	-0.072522	1.689595	-1.060225	-0.529623	12.529363	0.000000	0.000000	22.147255	-3.742580	-14.164178	9.866960	-6.977446	28.433554	37.169733	63.898807	2.741641	3.986651	19.246060	0.738808	77.736556	25.060363	48.208547	-2.992620	-6.424733
